<?xml version="1.0" encoding="UTF-8" standalone="no"?>
<svg
   width="980.00006"
   height="134.94441"
   viewBox="0 0 259.29167 35.704044"
   version="1.1"
   id="svg5"
   xmlns="http://www.w3.org/2000/svg"
   xmlns:svg="http://www.w3.org/2000/svg">
  <defs
     id="defs2" />
  <g
     id="layer1"
     transform="translate(0.00981545,-75.264667)">
    <g
       id="g1960"
       style="fill:#1b1919;fill-opacity:1">
      <path
         style="fill:#1b1919;fill-opacity:1;stroke-width:0.264583"
         d="m 95.240187,93.123376 v -17.33021 h 4.709282 4.709281 l 6.46936,8.76322 c 3.55816,4.81977 6.64578,9.04649 6.86138,9.39271 0.21561,0.34622 0.4835,0.62949 0.59531,0.62949 0.11182,0 0.20331,-4.22672 0.20331,-9.39271 v -9.39271 h 4.49791 4.49792 v 17.33021 17.330214 l -4.43177,-0.0114 -4.43177,-0.0114 -7.27605,-9.97666 -7.27604,-9.976684 -0.0693,9.988034 -0.0693,9.98802 h -4.494734 -4.494734 z"
         id="path1932" />
      <path
         style="fill:#1b1919;fill-opacity:1;stroke-width:0.264583"
         d="m 58.066228,93.123376 v -17.33021 h 4.683334 4.683337 l 1.804831,2.4474 c 0.992656,1.34606 4.123907,5.58742 6.95833,9.42523 l 5.153502,6.97785 0.06949,-9.42524 0.06949,-9.42524 h 4.494575 4.494575 v 17.33661 17.336604 l -4.403876,-0.0725 -4.403873,-0.0726 -7.171648,-9.80694 -7.171645,-9.806954 -0.06933,9.873104 -0.06933,9.87309 h -4.560882 -4.56088 z"
         id="path1930" />
      <path
         style="fill:#1b1919;fill-opacity:1;stroke-width:0.264583"
         d="m 44.175603,93.123376 v -17.33021 h 4.630208 4.630208 v 17.33021 17.330214 h -4.630208 -4.630208 z"
         id="path1928" />
      <path
         style="fill:#1b1919;fill-opacity:1;stroke-width:0.264583"
         d="M -0.00981545,93.123376 V 75.793166 H 6.3126648 12.635146 l 1.049247,2.71198 c 0.577086,1.49159 2.167048,5.65581 3.533249,9.25383 1.3662,3.59802 2.547204,6.54482 2.624453,6.54844 0.07725,0.004 1.745869,-4.13084 3.708048,-9.18769 l 3.567597,-9.19427 6.279973,-0.0709 6.279973,-0.0709 v 17.335 17.335004 h -4.495015 -4.495014 l -0.06905,-11.046364 -0.06905,-11.04635 -2.214833,5.68854 c -1.218157,3.1287 -3.161821,8.099564 -4.319255,11.046354 l -2.104425,5.35782 H 19.869365 17.827682 L 13.705523,99.804176 c -2.267187,-5.85722 -4.2267955,-10.88761 -4.3546858,-11.17865 -0.1396338,-0.31777 -0.2601,3.93665 -0.3015451,10.64948 L 8.9802751,110.45366 H 4.4852295 -0.00981545 Z"
         id="path1926" />
    </g>
    <g
       id="g1966"
       style="fill:#862527;fill-opacity:1">
      <path
         style="fill:#862527;fill-opacity:1;stroke-width:0.264583"
         d="m 240.49644,96.959836 v -13.49375 h -4.89479 -4.89479 v -3.83646 -3.83646 h 14.2875 14.2875 v 3.83049 3.83049 l -4.82865,0.0721 -4.82864,0.0721 -0.0686,13.4276 -0.0686,13.427614 h -4.4955 -4.49549 z"
         id="path1934" />
      <path
         id="path1924"
         style="fill:#862527;fill-opacity:1;stroke-width:0.999999"
         d="m 500.96289,286.46289 v 65.33203 c 0,35.93335 0.18698,65.52096 0.41602,65.75 0.22907,0.22904 7.99155,0.32641 17.25,0.2168 l 16.83398,-0.19922 0.26953,-22.05078 0.26953,-22.05078 h 19.76953 c 21.2719,0 27.05697,-0.87116 36.05274,-5.42969 15.04679,-7.62478 24.18128,-26.66972 21.40234,-44.62305 -2.82546,-18.25406 -15.15003,-31.91572 -32.375,-35.88672 -2.53432,-0.58423 -20.33696,-1.02199 -42.13867,-1.0371 z m 35,29.00195 14.25,0.004 c 16.05139,0.006 20.87416,0.96401 24.84766,4.9375 5.45809,5.45809 4.75096,15.88778 -1.37305,20.25586 v 0.002 c -2.98541,2.12935 -4.50613,2.33791 -20.47656,2.80078 l -17.25196,0.5 0.002,-14.25 z"
         transform="scale(0.26458333)" />
      <path
         style="fill:#862527;fill-opacity:1;stroke-width:0.264583"
         d="m 210.32473,110.58821 c -3.32225,-0.66256 -6.71451,-2.2804 -9.3017,-4.43618 l -0.71195,-0.59324 2.29945,-3.23012 c 1.2647,-1.77656 2.38772,-3.235084 2.4956,-3.241144 0.10788,-0.006 0.76273,0.42395 1.45521,0.955594 2.60621,2.00086 6.25642,3.26672 9.41989,3.26672 3.16269,0 5.20063,-1.03488 5.20063,-2.64091 0,-1.397314 -1.29688,-2.033654 -6.55128,-3.214494 -5.90276,-1.32656 -8.19699,-2.28205 -10.33819,-4.30563 -2.16286,-2.04406 -3.14843,-5.11445 -2.68778,-8.37337 0.61753,-4.36883 4.30532,-7.93488 9.45693,-9.14473 2.82555,-0.66357 8.50953,-0.39174 11.44323,0.54727 2.40838,0.77087 4.55532,1.85653 6.14577,3.10778 l 0.98638,0.77602 -2.15467,2.82663 c -1.18506,1.55465 -2.2922,2.97963 -2.4603,3.16663 -0.24497,0.2725 -0.61389,0.15437 -1.85849,-0.59509 -3.0018,-1.80759 -6.11442,-2.64758 -9.17206,-2.47522 -1.89118,0.10661 -2.70198,0.56093 -3.16569,1.77384 -0.3035,0.79386 0.2439,1.70207 1.37997,2.28955 0.44462,0.22993 2.55686,0.82161 4.69386,1.31485 7.92852,1.82997 10.97506,3.50541 12.67742,6.97193 0.66037,1.34471 0.73302,1.76938 0.73302,4.2848 0,2.696204 -0.0343,2.861554 -0.9981,4.811374 -1.59374,3.22423 -4.46414,5.29514 -8.5269,6.15192 -2.28498,0.48187 -8.05578,0.48475 -10.46025,0.005 z"
         id="path1920" />
      <path
         id="path1918"
         style="fill:#862527;fill-opacity:1;stroke-width:0.999999"
         d="m 691.30273,284.52344 c -2.03873,0.005 -4.40508,0.0658 -7.28906,0.16601 -11.32429,0.39334 -14.86476,0.91811 -21.55078,3.19532 -11.69144,3.98195 -18.01196,7.9489 -27.09375,17.00585 -8.88703,8.86273 -13.95663,17.63418 -17.09375,29.57227 -2.29568,8.73604 -2.29568,26.26396 0,35 6.41941,24.42861 26.06177,43.05109 51.1875,48.53125 9.58575,2.09072 27.78154,1.82662 37.03125,-0.53906 24.76108,-6.33283 42.84966,-23.99289 49.15625,-47.99219 2.29569,-8.73604 2.29569,-26.26396 0,-35 -6.36499,-24.22148 -24.46729,-41.74281 -49.72851,-48.13086 -5.33801,-1.34989 -8.50293,-1.82458 -14.61915,-1.80859 z m -4.41796,30.03125 c 8.50219,-0.12447 14.95954,1.85324 21.32031,6.47265 13.76795,9.99882 18.67136,31.33619 10.97851,47.77539 -3.91317,8.36221 -7.89334,12.67171 -15.43554,16.70704 -5.55969,2.97463 -7.32408,3.39962 -15.28516,3.6914 -7.74342,0.28373 -9.80531,-0.0101 -14.76953,-2.10156 -7.36902,-3.10469 -11.94081,-6.6129 -15.53125,-11.91797 -4.13125,-6.10416 -6.27396,-12.22507 -6.90234,-19.7207 -1.87941,-22.4174 12.6084,-39.87866 33.89648,-40.85352 0.58555,-0.0268 1.1617,-0.0444 1.72852,-0.0527 z"
         transform="scale(0.26458333)" />
    </g>
  </g>
</svg>
