<svg xmlns="http://www.w3.org/2000/svg" xmlns:xlink="http://www.w3.org/1999/xlink" width="262" height="64.072" viewBox="0 0 262 64.072"><defs><style>.a{fill:#fff;}.b{clip-path:url(#a);}</style><clipPath id="a"><path class="a" d="M0-46.064H262v-64.072H0Z" transform="translate(0 110.136)"/></clipPath></defs><g transform="translate(0 110.136)"><path class="a" d="M127.1-109.205h7.542v27.076H127.1Z" transform="translate(-53.159 -0.389)"/><g transform="translate(0 -109.594)"><path class="a" d="M0,0V6.576H8.123v20.5h7.5V6.576h8.123V0Z"/></g><g transform="translate(27.838 -109.729)"><path class="a" d="M0-.055H7.929L12.648,15.61,17.87-.132h6.46L29.551,15.61,34.27-.055h7.775L32.994,27.214H26.457L21,11.626,15.588,27.214H9.051Z" transform="translate(0 0.132)"/></g><g transform="translate(87.787 -109.572)"><path class="a" d="M0,0H7l11.14,14.312V0h7.426V27.076H18.992L7.427,12.223V27.076H0Z"/></g><g class="b" transform="translate(0 -110.136)"><g transform="translate(143.373 20.69)"><path class="a" d="M-.205,0Q-.348.173-.491.339q.172-.145.34-.3Z" transform="translate(0.491)"/></g><g transform="translate(125.06 0)"><path class="a" d="M0-10.178v-.077a13.909,13.909,0,0,1,14.273-14.08c5.531,0,9.09,2.321,11.488,5.648l-5.648,4.37A7.25,7.25,0,0,0,14.2-17.489c-3.791,0-6.459,3.211-6.459,7.156v.078c0,4.061,2.668,7.233,6.459,7.233,2.824,0,4.487-1.315,6.111-3.287l5.648,4.023A13.655,13.655,0,0,1,13.963,3.824,13.749,13.749,0,0,1,0-10.178" transform="translate(0 24.335)"/></g></g><path class="a" d="M268.358-109.205H275.9v27.076h-7.543Z" transform="translate(-112.241 -0.389)"/><g transform="translate(168.968 -109.74)"><path class="a" d="M-5.84-4.727h-8.123V-11.3H9.787v6.576H1.664v20.5h-7.5Z" transform="translate(13.963 11.303)"/></g><path class="a" d="M341.482-109.456h7.542V-82.38h-7.542Z" transform="translate(-142.825 -0.284)"/><g transform="translate(212.199 -109.596)"><path class="a" d="M0,0H21.777V6.382H7.427v4.1h13V16.4h-13v4.293H21.97v6.382H0Z"/></g><g class="b" transform="translate(0 -110.136)"><g transform="translate(238.367 0.358)"><path class="a" d="M0-16.908,4.178-21.9a13.947,13.947,0,0,0,8.78,3.249c2.011,0,3.094-.7,3.094-1.856v-.078c0-1.122-.889-1.74-4.564-2.591-5.763-1.315-10.211-2.94-10.211-8.509v-.078c0-5.028,3.984-8.664,10.482-8.664a17.044,17.044,0,0,1,11.14,3.6l-3.752,5.3A13.585,13.585,0,0,0,11.565-34.2c-1.818,0-2.707.773-2.707,1.741v.077c0,1.237.928,1.779,4.68,2.63,6.228,1.354,10.1,3.365,10.1,8.432v.077c0,5.531-4.37,8.819-10.946,8.819A18.914,18.914,0,0,1,0-16.908" transform="translate(0 40.425)"/></g><g transform="translate(45.448 45.799)"><path class="a" d="M-1.409,0A8.329,8.329,0,0,1-3.368,1.175q.317.1.619.219A6.215,6.215,0,0,0-1.409,0" transform="translate(3.368)"/></g><g transform="translate(27.905 35.631)"><path class="a" d="M0,0H13.886c3.4,0,5.8.851,7.388,2.437a5.938,5.938,0,0,1,1.74,4.371v.077a6.266,6.266,0,0,1-4.177,6.034c3.287,1.083,5.376,2.94,5.376,6.614v.077c0,4.642-3.79,7.465-10.25,7.465H0ZM12.029,10.791c2.282,0,3.559-.773,3.559-2.359V8.355c0-1.47-1.161-2.321-3.4-2.321H7.31v4.757Zm1.083,10.25c2.282,0,3.6-.889,3.6-2.475v-.078c0-1.47-1.161-2.436-3.675-2.436H7.31v4.99Z"/></g><g transform="translate(56.225 36.261)"><path class="a" d="M0-10.929v-15.2H7.62v15.046c0,3.907,1.973,5.764,4.99,5.764S17.6-7.1,17.6-10.89V-26.13h7.62v15.008c0,8.741-4.99,12.57-12.687,12.57S0-2.458,0-10.929" transform="translate(0 26.13)"/></g><g transform="translate(84.705 36.068)"><path class="a" d="M0-16.908,4.178-21.9a13.945,13.945,0,0,0,8.78,3.249c2.011,0,3.094-.7,3.094-1.856v-.078c0-1.122-.889-1.74-4.564-2.591-5.763-1.315-10.211-2.94-10.211-8.509v-.078c0-5.028,3.984-8.664,10.482-8.664a17.044,17.044,0,0,1,11.14,3.6l-3.752,5.3A13.585,13.585,0,0,0,11.565-34.2c-1.818,0-2.707.773-2.707,1.741v.077c0,1.237.928,1.779,4.68,2.63,6.227,1.354,10.1,3.365,10.1,8.432v.077c0,5.531-4.371,8.819-10.946,8.819A18.913,18.913,0,0,1,0-16.908" transform="translate(0 40.425)"/></g></g><path class="a" d="M194.592-48.95h7.542v27.076h-7.542Z" transform="translate(-81.388 -25.591)"/><g transform="translate(126.901 -74.626)"><path class="a" d="M0,0H7l11.14,14.312V0h7.426V27.076H18.992L7.427,12.223V27.076H0Z"/></g><g transform="translate(158.527 -74.626)"><path class="a" d="M0,0H21.777V6.382H7.427v4.1h13V16.4h-13v4.293H21.97v6.382H0Z"/></g><g class="b" transform="translate(0 -110.136)"><g transform="translate(184.586 35.746)"><path class="a" d="M0-16.908,4.177-21.9a13.949,13.949,0,0,0,8.781,3.249c2.011,0,3.094-.7,3.094-1.856v-.078c0-1.122-.889-1.74-4.564-2.591-5.763-1.315-10.211-2.94-10.211-8.509v-.078c0-5.028,3.984-8.664,10.481-8.664a17.044,17.044,0,0,1,11.14,3.6l-3.752,5.3A13.585,13.585,0,0,0,11.565-34.2c-1.818,0-2.707.773-2.707,1.741v.077c0,1.237.928,1.779,4.68,2.63,6.227,1.354,10.1,3.365,10.1,8.432v.077c0,5.531-4.371,8.819-10.946,8.819A18.913,18.913,0,0,1,0-16.908" transform="translate(0 40.425)"/></g><g transform="translate(211.625 35.746)"><path class="a" d="M0-16.908,4.178-21.9a13.947,13.947,0,0,0,8.78,3.249c2.011,0,3.094-.7,3.094-1.856v-.078c0-1.122-.889-1.74-4.564-2.591-5.763-1.315-10.211-2.94-10.211-8.509v-.078c0-5.028,3.984-8.664,10.482-8.664a17.044,17.044,0,0,1,11.14,3.6l-3.752,5.3A13.584,13.584,0,0,0,11.565-34.2c-1.818,0-2.707.773-2.707,1.741v.077c0,1.237.928,1.779,4.68,2.63,6.228,1.354,10.1,3.365,10.1,8.432v.077c0,5.531-4.37,8.819-10.946,8.819A18.914,18.914,0,0,1,0-16.908" transform="translate(0 40.425)"/></g></g></g></svg>